<svg width="26" height="28" viewBox="0 0 26 28" fill="none" xmlns="http://www.w3.org/2000/svg">
<mask id="path-1-inside-1" fill="white">
<path d="M0 5C0 2.23858 2.23858 0 5 0H21C23.7614 0 26 2.23858 26 5V26.9545C26 27.7868 25.0426 28.2548 24.3858 27.7436L17.3762 22.2878C17.2006 22.1511 16.9845 22.0769 16.762 22.0769H5C2.23858 22.0769 0 19.8383 0 17.0769V5Z"/>
</mask>
<path d="M7.5 6.5C6.67157 6.5 6 7.17157 6 8C6 8.82843 6.67157 9.5 7.5 9.5V6.5ZM18.5 9.5C19.3284 9.5 20 8.82843 20 8C20 7.17157 19.3284 6.5 18.5 6.5V9.5ZM7.5 12.5C6.67157 12.5 6 13.1716 6 14C6 14.8284 6.67157 15.5 7.5 15.5V12.5ZM18.5 15.5C19.3284 15.5 20 14.8284 20 14C20 13.1716 19.3284 12.5 18.5 12.5V15.5ZM7.5 15.5H18.5V12.5H7.5V15.5ZM7.5 9.5H13V6.5H7.5V9.5ZM13 9.5H18.5V6.5H13V9.5ZM17.3762 22.2878L15.5335 24.6552L17.3762 22.2878ZM24.3858 27.7436L26.2284 25.3762L24.3858 27.7436ZM5 3H21V-3H5V3ZM23 5V26.9545H29V5H23ZM3 17.0769V5H-3V17.0769H3ZM26.2284 25.3762L19.2188 19.9204L15.5335 24.6552L22.5431 30.111L26.2284 25.3762ZM16.762 19.0769H5V25.0769H16.762V19.0769ZM19.2188 19.9204C18.5165 19.3737 17.6519 19.0769 16.762 19.0769V25.0769C16.317 25.0769 15.8847 24.9285 15.5335 24.6552L19.2188 19.9204ZM-3 17.0769C-3 21.4952 0.581723 25.0769 5 25.0769V19.0769C3.89543 19.0769 3 18.1815 3 17.0769H-3ZM23 26.9545C23 25.2898 24.9148 24.3538 26.2284 25.3762L22.5431 30.111C25.1704 32.1559 29 30.2837 29 26.9545H23ZM21 3C22.1046 3 23 3.89543 23 5H29C29 0.581722 25.4183 -3 21 -3V3ZM5 -3C0.581719 -3 -3 0.581729 -3 5H3C3 3.89543 3.89543 3 5 3V-3Z" fill="#222222" mask="url(#path-1-inside-1)"/>
</svg>
