<svg width="30" height="30" viewBox="0 0 30 30" fill="none" xmlns="http://www.w3.org/2000/svg">
<path d="M16.4142 13.5858C15.6332 12.8047 14.3668 12.8047 13.5858 13.5858L0.857864 26.3137C0.0768158 27.0948 0.0768158 28.3611 0.857864 29.1421C1.63891 29.9232 2.90524 29.9232 3.68629 29.1421L15 17.8284L26.3137 29.1421C27.0948 29.9232 28.3611 29.9232 29.1421 29.1421C29.9232 28.3611 29.9232 27.0948 29.1421 26.3137L16.4142 13.5858ZM17 17V15H13V17H17Z" fill="#222222"/>
<path d="M13.5858 16.4142C14.3668 17.1953 15.6332 17.1953 16.4142 16.4142L29.1421 3.68629C29.9232 2.90524 29.9232 1.63891 29.1421 0.857864C28.3611 0.0768158 27.0948 0.0768158 26.3137 0.857864L15 12.1716L3.68629 0.857864C2.90524 0.0768158 1.63891 0.0768158 0.857864 0.857864C0.0768158 1.63891 0.0768158 2.90524 0.857864 3.68629L13.5858 16.4142ZM13 13V15H17V13H13Z" fill="#222222"/>
</svg>
